<svg enable-background="new 0 0 32 32" height="512" viewBox="0 0 32 32" width="512" xmlns="http://www.w3.org/2000/svg"><g id="BG"><path d="m26 32h-20c-3.314 0-6-2.686-6-6v-20c0-3.314 2.686-6 6-6h20c3.314 0 6 2.686 6 6v20c0 3.314-2.686 6-6 6z" fill="#e3f8fa"/></g><g id="Layer_3"><path d="m23.267 16.667h-5.867c-.405 0-.733.328-.733.733v5.867c0 .405.328.733.733.733h5.867c.405 0 .733-.328.733-.733v-5.867c0-.405-.328-.733-.733-.733z" fill="#26c6da"/><path d="m23.267 8h-5.867c-.405 0-.733.328-.733.733v5.867c0 .405.328.733.733.733h5.867c.405 0 .733-.328.733-.733v-5.867c0-.405-.328-.733-.733-.733z" fill="#8ce1eb"/><path d="m8.733 24h5.867c.405 0 .733-.328.733-.733v-14.534c0-.405-.328-.733-.733-.733h-5.867c-.405 0-.733.328-.733.733v14.533c0 .406.328.734.733.734z" fill="#26c6da"/></g></svg>